<?xml version="1.0" ?><svg data-name="Layer 1" id="Layer_1" viewBox="0 0 150 150" xmlns="http://www.w3.org/2000/svg" xmlns:xlink="http://www.w3.org/1999/xlink"><defs><style>.cls-1{fill:#66A4C0;}.cls-2{clip-path:url(#clip-path);}.cls-3{fill:#44c2c7;}.cls-4{fill:#fff;}</style><clipPath id="clip-path"><circle class="cls-1" cx="75" cy="75" r="65"/></clipPath></defs><title/><circle class="cls-1" cx="75" cy="75" r="65"/><g class="cls-2"><rect class="cls-3" height="3.49" transform="translate(29.23 101.73) rotate(-45)" width="4.36" x="135.24" y="13.84"/><path class="cls-3" d="M21.52,134l-2.46-2.46,6.42-6.42,2.46,2.46Zm12.84-12.84-2.46-2.46,6.42-6.42,2.46,2.46ZM47.2,108.26l-2.46-2.46,6.42-6.42,2.46,2.46ZM60,95.42L57.58,93,64,86.53,66.47,89ZM72.89,82.58l-2.46-2.46,6.42-6.42,2.46,2.46ZM85.74,69.73l-2.46-2.46,6.42-6.42,2.46,2.46ZM98.58,56.89l-2.46-2.46L102.54,48,105,50.47ZM111.43,44L109,41.58l6.42-6.42,2.46,2.46ZM124.27,31.2l-2.46-2.46,6.42-6.42,2.46,2.46Z"/><rect class="cls-3" height="3.49" transform="translate(-95.87 49.91) rotate(-45)" width="4.36" x="10.14" y="138.94"/><path class="cls-4" d="M91.57,70.05L104,58.45c3.38-3.43,5.47-9.29,3.16-11.56l-1.39-1.37c-2.3-2.27-8.13-.08-11.51,3.35l-12,12.56c-8.66-3.5-23.19-9.31-30.16-11.67C49.4,48.86,39.46,53.8,42,55c7.41,3.58,22.47,11.57,31,16.11L53.13,91.9c-2.74-1.09-5.84-2.3-7.59-2.89-0.95-.32-4.44,1.42-3.54,1.85,1.93,0.93,5.35,2.72,8.2,4.23-2.15,2.67-3.09,5.17-1.27,7l1.39,1.37c1.85,1.82,4.37.78,7-1.47,1.59,2.94,3.61,6.66,4.73,8.67,0.49,0.87,2.17-2.65,1.79-3.57-0.71-1.74-2.12-5.2-3.31-8.1L81.73,79.23c4.36,8.09,13.17,24.39,17.45,32,1.39,2.48,6.17-7.52,5.11-10.16C101.55,94.37,95.09,78.61,91.57,70.05Z"/></g></svg>