<?xml version="1.0" ?><!DOCTYPE svg  PUBLIC '-//W3C//DTD SVG 1.1//EN'  'http://www.w3.org/Graphics/SVG/1.1/DTD/svg11.dtd'><svg enable-background="new 0 0 91 91" height="91px" id="Layer_1" version="1.1" viewBox="0 0 91 91" width="91px" xml:space="preserve" xmlns="http://www.w3.org/2000/svg" xmlns:xlink="http://www.w3.org/1999/xlink"><g><rect fill="#E0F1F8" height="10.05" width="87.101" x="2.054" y="3.584"/><rect fill="#E0F1F8" height="10.05" width="87.101" x="2.054" y="42.108"/><rect fill="#E0F1F8" height="10.05" width="87.101" x="2.054" y="80.634"/><path d="M88.3,5.537H3.188c-1.388,0-2.513-1.125-2.513-2.512c0-1.389,1.125-2.514,2.513-2.514H88.3   c1.388,0,2.513,1.125,2.513,2.514C90.813,4.412,89.688,5.537,88.3,5.537z" fill="#454B53"/><path d="M88.3,43.367H3.188c-1.388,0-2.513-1.125-2.513-2.514c0-1.387,1.125-2.512,2.513-2.512H88.3   c1.388,0,2.513,1.125,2.513,2.512C90.813,42.242,89.688,43.367,88.3,43.367z" fill="#454B53"/><path d="M88.3,81.192H3.188c-1.388,0-2.513-1.125-2.513-2.513s1.125-2.513,2.513-2.513H88.3   c1.388,0,2.513,1.125,2.513,2.513S89.688,81.192,88.3,81.192z" fill="#454B53"/></g></svg>